<?xml version="1.0" standalone="no"?>
<!DOCTYPE svg PUBLIC "-//W3C//DTD SVG 1.1//EN" "http://www.w3.org/Graphics/SVG/1.1/DTD/svg11.dtd" >
<svg xmlns="http://www.w3.org/2000/svg">
<metadata>Generated by IcoMoon</metadata>
<defs>
<font id="icomoon" horiz-adv-x="1024">
<font-face units-per-em="1024" ascent="960" descent="-64" />
<missing-glyph horiz-adv-x="1024" />
<glyph unicode="&#x20;" horiz-adv-x="512" d="" />
<glyph unicode="&#xe900;" glyph-name="bubble-chat-1" d="M606.785 837.214c-63.59 39.22-138.945 60.786-216.785 60.786-211.892 0-390-157.866-390-360 0-70.87 22.016-138.807 63.836-197.482l-58.42-183.409c-6.172-19.375 8.34-39.106 28.59-39.106 4.63 0 9.29 1.067 13.59 3.255l177.664 90.333c7.194-3.099 14.478-5.977 21.836-8.655-41.134 64.205-63.096 137.906-63.096 215.067 0 229.792 193.356 406.454 422.785 419.212zM960.162 220.516c41.822 58.675 63.838 126.615 63.838 197.486 0 202.206-178.181 359.998-389.998 359.998-211.894 0-390.002-157.866-390.002-359.998 0-202.208 178.184-360.001 390.002-360.001 56.832 0 113.465 11.582 164.729 33.593l177.675-90.338c10.779-5.481 23.805-3.95 33.021 3.886 9.221 7.831 12.832 20.437 9.157 31.965l-58.422 183.409zM512 387.999c-16.568 0-30 13.431-30 30.003 0 16.566 13.432 29.998 30 29.998s29.998-13.432 29.998-29.998c0-16.573-13.43-30.003-29.998-30.003zM632.002 387.999c-16.573 0-30.003 13.431-30.003 30.003 0 16.566 13.431 29.998 30.003 29.998 16.567 0 29.998-13.432 29.998-29.998 0-16.573-13.431-30.003-29.998-30.003zM751.999 387.999c-16.567 0-29.998 13.431-29.998 30.003 0 16.566 13.431 29.998 29.998 29.998s30.003-13.432 30.003-29.998c0-16.573-13.436-30.003-30.003-30.003z" />
<glyph unicode="&#xe901;" glyph-name="certificate-1-1" d="M798.153 361.505c-57.793 0-104.806-47.017-104.806-104.806 0-57.791 47.015-104.806 104.806-104.806 57.789 0 104.804 47.015 104.804 104.806 0 57.789-47.015 104.806-104.804 104.806zM798.159 91.894c-23.93 0-46.659 5.167-67.198 14.379v-88.005l67.198 21.898 67.198-21.898v88.005c-20.537-9.212-43.27-14.379-67.198-14.379zM0 877.731v-776.668h670.946v50.956c-23.487 28.487-37.608 64.965-37.608 104.68 0 90.874 73.933 164.805 164.807 164.805 90.872 0 164.805-73.931 164.805-164.805 0-39.715-14.123-76.193-37.608-104.68v-50.956h98.658v776.668h-1024zM512 378.892h-373.328v60h373.328v-60zM885.329 535.977h-746.657v59.999h746.657v-59.999zM885.329 693.061h-746.657v60h746.657v-60z" />
<glyph unicode="&#xe902;" glyph-name="certificate-1" d="M696.001 418.008c-16.555 0-30-13.446-30-30s13.446-30 30-30c16.546 0 29.998 13.446 29.998 30s-13.443 30-29.998 30zM696.001 568.007c-99.26 0-180.002-80.742-180.002-179.999 0-99.26 80.742-180.002 180.002-180.002 99.257 0 179.991 80.742 179.991 180.002 0 99.257-80.734 179.999-179.991 179.999zM696.001 298.007c-49.633 0-90.001 40.374-90.001 90.001 0 49.624 40.368 89.998 90.001 89.998 49.624 0 89.998-40.374 89.998-89.998 0-49.627-40.374-90.001-89.998-90.001zM546 202.189v-236.174c0-12.132 7.296-23.086 18.517-27.719 11.25-4.656 24.078-2.108 32.694 6.508l98.79 98.79 98.788-98.79c5.743-5.74 13.414-8.789 21.202-8.789 3.877 0 7.768 0.728 11.486 2.281 11.227 4.634 18.514 15.588 18.514 27.719v236.174c-41.219-33.354-92.968-54.181-149.99-54.181-57.031 0-108.774 20.827-150.002 54.181zM995.985 960h-963.985c-16.586 0-30-13.414-30-30v-661.994c0-16.577 13.414-30 30-30h478.174c-33.354 41.227-54.181 92.971-54.181 150.002 0 132.335 107.665 240 240 240 132.329 0 239.994-107.665 239.994-240 0-57.031-20.821-108.774-54.172-150.002h114.17c16.586 0 30 13.423 30 30v661.994c0 16.586-13.414 30-30 30zM333.992 838h362.001c16.577 0 30-13.414 30-30 0-16.578-13.423-30-30-30h-362.001c-16.577 0-30 13.422-30 30 0 16.586 13.423 30 30 30zM395.992 418.008h-243.992c-16.586 0-30 13.412-30 29.998 0 16.58 13.414 30 30 30h243.992c16.586 0 30-13.42 30-30 0-16.586-13.414-29.998-30-29.998zM455.993 538.007h-303.993c-16.586 0-30 13.414-30 30 0 16.577 13.414 30 30 30h303.993c16.586 0 30-13.423 30-30 0-16.586-13.414-30-30-30zM875.986 658.008c-262.938 0-468.782 0-723.986 0-16.586 0-30 13.414-30 29.991 0 16.586 13.414 30 30 30h723.986c16.586 0 30-13.414 30-30 0-16.577-13.414-29.991-30-29.991z" />
<glyph unicode="&#xe903;" glyph-name="chatting-1" d="M708.058 896.758h-592.258c-63.86 0-115.8-51.94-115.8-115.8v-518.999c0-24.583 27.798-38.438 47.42-24.422l164.94 117.681c13.84 9.861 30.12 15.080 47.12 15.080h362.781c63.86 0 115.801 51.941 115.801 115.801v380.659c0 16.56-13.442 30-30.003 30zM562.34 533.337h-346.62c-16.56 0-30 13.421-30 30.003 0 16.558 13.44 30 30 30h346.62c16.561 0 30-13.442 30-30 0-16.582-13.438-30.003-30-30.003zM562.34 673.338h-346.62c-16.56 0-30 13.42-30 30 0 16.56 13.44 30 30 30h346.62c16.561 0 30-13.44 30-30 0-16.58-13.438-30-30-30zM1023.993 548.256v-518.98c0-24.416-27.658-38.537-47.421-24.422l-164.939 117.661c-13.838 9.861-30.119 15.080-47.118 15.080h-362.783c-63.859 0-115.799 51.961-115.799 115.821v56.88h336.321c96.939 0 175.8 78.858 175.8 175.8v177.979h110.138c63.86 0 115.801-51.958 115.801-115.818z" />
<glyph unicode="&#xe904;" glyph-name="customer-support-1" d="M862.587 155.341c-20.623 61.379-102.82 99.799-161.423 125.553-22.958 10.056-86.518 27.116-94.157 56.023-2.734 10.414-2.365 20.234-0.123 29.645-3.533-0.676-7.117-1.075-10.824-1.075h-38.185c-30.484 0-55.255 24.801-55.255 55.265 0 30.444 24.781 55.194 55.255 55.194h38.185c12.616 0 24.576-4.27 34.222-11.889 14.141 1.884 27.781 4.905 40.499 8.868 16.701 34.99 29.727 76.831 32.645 112.845 12.462 154.090-82.002 244.243-217.446 228.658-98.478-11.336-157.306-84.767-163.665-179.302-6.431-96.357 29.296-167.525 67.245-219.729 16.62-22.825 34.079-37.499 31.396-65.004-3.113-32.522-37.888-41.585-62.761-51.579-29.47-11.837-61.214-29.798-76.205-38.103-51.64-28.518-108.319-62.863-121.057-109.844-28.211-104.12 67.062-135.66 145.715-150.221 67.501-12.452 143.615-13.435 206.222-13.435 113.244 0 316.877 4.536 349.716 89.661 9.339 24.156 5.335 62.648 0 78.469zM620.237 436.296c-5.181 7.895-14.039 13.138-24.146 13.138h-38.185c-15.933 0-28.785-12.872-28.785-28.723 0-15.913 12.851-28.805 28.785-28.805h38.185c11.151 0 20.613 6.359 25.385 15.555 53.238 4.188 99.543 20.449 132.045 44.462 7.465-4.813 16.292-7.629 25.815-7.629h2.396c26.542 0 48.005 21.484 48.005 48.056v95.928c0 19.108-11.203 35.594-27.361 43.254-7.045 154.040-134.564 277.268-290.335 277.268s-283.311-123.228-290.326-277.268c-16.189-7.67-27.382-24.146-27.382-43.254v-95.928c0-26.573 21.484-48.056 47.964-48.056h2.427c26.501 0 47.995 21.484 47.995 48.056v95.928c0 18.831-10.885 35.072-26.706 42.926 6.851 129.792 114.556 233.247 246.028 233.247 131.42 0 239.176-103.455 245.996-233.247-15.8-7.864-26.675-24.095-26.675-42.926v-95.928c0-6.369 1.239-12.298 3.42-17.838-27.976-20.019-68.7-34.284-114.545-38.216z" />
<glyph unicode="&#xe905;" glyph-name="cutter-machine-1" d="M954.808 172.631h-246.313c23.524 27.674 40.131 60.884 47.050 96.863 5.535 27.676 4.15 55.352-1.385 81.644l52.585 15.222c4.15 1.385 6.917 2.767 8.302 6.92 1.382 2.767 2.767 6.92 1.382 11.069-20.756 70.574-67.804 128.694-131.459 164.672s-138.378 42.895-208.952 23.524l-27.674 33.211 157.75 119.005c2.767 2.768 5.535 5.535 5.535 9.687s-1.382 6.919-2.767 11.070l-56.735 67.805c-2.767 2.768-5.535 4.151-9.687 5.535-4.15 0-6.917-1.384-9.684-4.151l-143.916-135.612-89.946 107.936c0 0-1.382 0-1.382 1.384 0 0 0 0-1.385 1.384l-102.4 81.643c-16.605 12.454-38.746 12.454-53.967 0l-66.422-55.351c-15.222-13.838-19.373-35.978-9.687-53.968l60.887-119.006c0 0 0 0 1.384-1.382 0 0 0-1.385 1.384-1.385l52.584-63.654-16.605-52.582c-1.384-4.152 0-8.302 1.384-11.069l52.584-80.261c2.768-2.767 5.535-5.535 9.687-5.535h1.384c2.767 0 6.919 1.385 8.303 2.767l38.746 31.828 29.059-34.596c-29.059-59.502-37.361-128.691-17.989-197.88 1.385-5.535 6.92-9.687 13.839-9.687h4.15l52.585 15.222c8.302-23.524 20.756-44.28 37.363-63.654h-325.19c-8.303 0-13.838-5.535-13.838-13.837v-124.541c0-8.302 5.535-13.837 13.838-13.837h885.62c8.305 0 13.839 5.535 13.839 13.837v125.924c0 6.92-5.535 13.839-13.839 13.839zM287.826 490.9l-132.844 157.752 77.492 65.037 49.817 41.513 163.287-195.113c-53.97-22.141-96.865-60.887-127.309-106.552l-30.444 37.363zM376.389 338.683c17.989 96.865 112.084 161.905 208.95 143.916 47.048-8.305 87.178-34.596 114.854-74.726 27.676-38.746 37.363-87.178 29.059-134.226-6.917-40.131-27.674-76.109-58.117-102.4h-235.244c-49.818 41.513-71.956 105.167-59.502 167.437zM601.946 297.17c-4.15-24.909-26.291-42.898-51.2-42.898-2.767 0-6.917 0-9.684 1.385-27.676 5.535-47.050 31.826-41.516 60.884 2.767 13.839 9.687 24.909 22.141 33.211 11.069 8.305 24.909 11.072 38.746 8.305 29.061-5.537 47.050-33.211 41.513-60.887zM577.004 442.468c6.917-1.385 12.454-8.302 11.069-16.604-1.385-6.92-6.92-11.072-13.837-11.072-1.385 0-1.385 0-2.77 0h-1.382c-6.92 1.385-12.454 8.302-11.069 16.607 1.382 6.917 8.302 12.454 15.222 11.069zM430.351 315.159c6.92 0 12.454 4.152 13.837 11.072 8.305 44.28 44.283 80.259 88.563 88.561 6.92 1.385 12.454 8.302 11.069 16.607-1.382 6.917-8.302 12.454-16.604 11.069-56.735-9.687-101.018-53.967-110.702-110.702-1.385-6.92 4.15-15.222 11.069-16.607h2.767zM923.005 324.846c2.767 0 5.535 0 6.92 2.767l16.604 11.072c6.92 4.15 8.302 12.452 4.152 19.372-4.152 6.92-12.454 8.302-19.374 4.152l-15.222-11.072c-6.917-4.15-8.302-12.452-4.15-19.372 1.382-4.152 6.917-6.92 11.069-6.92zM851.005 312.389c2.767 0 5.535 0 6.92 2.77l16.604 11.069c6.92 4.15 8.302 12.454 4.152 19.372-4.152 6.92-12.454 8.305-19.374 4.152l-15.222-11.069c-6.917-4.152-8.302-12.454-4.15-19.374 2.767-4.15 6.917-6.92 11.069-6.92zM806.743 258.427l-16.607-11.069c-6.92-4.152-8.302-12.454-4.152-19.374 2.77-4.15 6.92-6.917 12.454-6.917 2.767 0 5.535 0 6.92 2.767l16.607 11.069c6.917 4.152 8.302 12.454 4.15 19.374-4.15 6.917-12.454 8.302-19.372 4.15zM914.688 245.972c2.77 0 5.537 0 6.92 2.767l16.607 11.069c6.917 4.152 8.302 12.454 4.15 19.374-4.15 6.917-12.454 8.302-19.372 4.15l-16.607-11.069c-6.917-4.152-8.302-12.454-4.15-19.374 2.767-5.535 8.302-6.917 12.452-6.917zM868.992 252.89l-16.607-11.072c-6.917-4.15-8.302-12.454-4.15-19.372 2.767-4.152 6.92-6.92 11.069-6.92 2.767 0 5.535 0 6.92 2.767l16.604 11.069c6.92 4.152 8.305 12.454 4.152 19.374-2.767 5.535-11.069 8.302-17.989 4.152z" />
<glyph unicode="&#xe906;" glyph-name="deal-1" d="M641.099 447.16l-128.904-128.904c-47.441-47.444-124.244-47.456-171.695 0-47.334 47.336-47.334 124.356 0 171.692l127.937 127.937c-44.716 36.183-99.205 54.281-153.699 54.277-69.539 0-246.235 0-314.738 0v-301.176h76.658c10.087-42.701 31.77-83.215 65.074-116.519 15.266-15.267 270.877-270.878 283.183-283.187 24.040-24.037 63.789-25.236 88.061-0.22 23.224 23.941 23.013 62.166-0.654 85.829 52.338-52.323 40.882-40.873 42.565-42.553 23.585-23.371 61.829-24.745 85.965-1.897 24.986 23.651 25.633 63.304 1.235 87.706 53.603-53.588 40.445-40.436 42.556-42.544 24.073-23.865 63.678-24.955 87.859-0.027 23.221 23.938 23.010 62.16-0.657 85.826 57.651-57.639 38.599-38.59 42.553-42.544 23.585-23.383 61.838-24.76 85.977-1.909 25.115 23.775 25.525 63.416 1.235 87.709l-260.512 260.506zM481.882 943.221h60.235v-120.471h-60.235v120.471zM304.646 878.662l53.368 27.949 52.311-99.885-53.368-27.949-52.311 99.885zM613.942 806.559l52.308 99.885 53.368-27.949-52.308-99.885-53.368 27.949zM709.259 672.16c-62.624 0.004-125.247-23.883-173.026-71.662l-153.139-153.142c-23.889-23.886-23.889-62.621 0-86.507 23.889-23.889 62.618-23.889 86.507 0 16.36 16.36 153.609 153.612 171.499 171.496l258.56-258.56c23.582 29.151 39.472 62.452 47.682 97.202h76.655v301.176l-314.738-0.002z" />
<glyph unicode="&#xe907;" glyph-name="expertise-1" d="M239.017 778.195l21.362-56.262c0.641-1.691 2.137-2.776 3.944-2.863l60.107-2.93c4.088-0.199 5.761-5.348 2.571-7.913l-46.907-37.702c-1.409-1.134-1.98-2.89-1.506-4.635l15.789-58.074c1.073-3.95-3.307-7.13-6.73-4.891l-50.352 32.961c-1.513 0.992-3.362 0.992-4.875 0l-50.35-32.961c-3.424-2.24-7.806 0.941-6.731 4.891l15.787 58.074c0.476 1.745-0.095 3.501-1.505 4.635l-46.907 37.702c-3.191 2.564-1.517 7.714 2.571 7.913l60.108 2.93c1.807 0.087 3.303 1.172 3.944 2.863l21.362 56.262c1.439 3.805 6.872 3.805 8.317 0zM784.795 900.287l21.362-56.262c0.641-1.691 2.137-2.777 3.942-2.865l60.109-2.929c4.088-0.199 5.761-5.348 2.571-7.914l-46.907-37.703c-1.409-1.132-1.982-2.89-1.506-4.636l15.789-58.073c1.073-3.95-3.307-7.13-6.732-4.891l-50.352 32.961c-1.513 0.992-3.36 0.992-4.872 0l-50.35-32.961c-3.425-2.24-7.807 0.941-6.732 4.891l15.789 58.073c0.476 1.746-0.095 3.502-1.506 4.636l-46.907 37.701c-3.191 2.564-1.517 7.714 2.571 7.914l60.109 2.929c1.807 0.088 3.3 1.173 3.944 2.865l21.36 56.262c1.441 3.805 6.874 3.805 8.317 0.002zM897.102 606.039l21.362-56.261c0.641-1.691 2.137-2.778 3.942-2.865l60.111-2.93c4.087-0.199 5.761-5.348 2.571-7.913l-46.907-37.7c-1.409-1.134-1.982-2.89-1.508-4.636l15.789-58.072c1.073-3.95-3.307-7.132-6.732-4.891l-50.352 32.961c-1.513 0.99-3.36 0.99-4.872 0l-50.35-32.961c-3.425-2.241-7.805 0.941-6.732 4.891l15.789 58.072c0.476 1.746-0.095 3.502-1.506 4.636l-46.907 37.7c-3.191 2.564-1.517 7.714 2.571 7.913l60.111 2.93c1.807 0.089 3.3 1.174 3.944 2.865l21.36 56.261c1.437 3.804 6.87 3.804 8.315 0zM146.122 489.445l21.361-56.263c0.641-1.69 2.137-2.776 3.944-2.863l60.108-2.93c4.087-0.199 5.761-5.348 2.571-7.913l-46.907-37.7c-1.41-1.134-1.981-2.89-1.506-4.636l15.789-58.072c1.073-3.95-3.307-7.132-6.732-4.891l-50.352 32.96c-1.514 0.992-3.361 0.992-4.875 0l-50.352-32.96c-3.424-2.241-7.804 0.941-6.731 4.891l15.788 58.072c0.475 1.746-0.096 3.502-1.506 4.636l-46.907 37.7c-3.191 2.564-1.517 7.714 2.571 7.913l60.11 2.93c1.807 0.087 3.301 1.174 3.944 2.863l21.361 56.263c1.441 3.804 6.875 3.804 8.318 0zM432.566 286.908c9.978 9.978 26.304 9.978 36.28 0l25.994-25.994 70.332 70.334c9.978 9.976 26.305 9.976 36.282 0 0-2.405 17.41-18.872 0-36.284l-87.971-87.971c-12.72-12.718-29.734-7.549-41.015 3.732l-39.902 39.904c-9.976 9.975-9.976 26.302 0 36.28zM788.736 304.663l-40.937 15.756c-1.233 0.474-2.078 1.435-2.395 2.717-5.636 22.803-14.689 44.618-26.831 64.724-0.683 1.13-0.764 2.406-0.229 3.612l17.818 40.116c0.671 1.509 0.358 3.191-0.81 4.36l-48.6 48.6c-1.168 1.168-2.848 1.479-4.358 0.81l-40.128-17.823c-1.206-0.535-2.484-0.455-3.614 0.228-20.101 12.138-41.91 21.189-64.707 26.827-1.28 0.317-2.24 1.162-2.715 2.395l-15.76 40.947c-0.595 1.544-2.002 2.509-3.658 2.509h-68.727c-1.652 0-3.061-0.967-3.654-2.509l-15.762-40.949c-0.476-1.233-1.435-2.078-2.715-2.395-22.795-5.636-44.605-14.687-64.705-26.827-1.13-0.683-2.408-0.762-3.614-0.228l-40.129 17.823c-1.509 0.669-3.19 0.358-4.36-0.81l-48.598-48.6c-1.168-1.168-1.479-2.85-0.812-4.36l17.823-40.124c0.533-1.206 0.455-2.484-0.228-3.612-12.138-20.105-21.191-41.916-26.829-64.711-0.317-1.284-1.162-2.241-2.395-2.715l-40.943-15.76c-1.542-0.594-2.509-2.002-2.509-3.654v-68.729c0-1.654 0.969-3.061 2.509-3.656l40.937-15.754c1.233-0.474 2.076-1.434 2.395-2.715 5.638-22.803 14.689-44.62 26.831-64.724 0.683-1.13 0.762-2.408 0.228-3.614l-17.819-40.116c-0.669-1.509-0.358-3.19 0.812-4.358l48.6-48.598c1.168-1.17 2.85-1.481 4.36-0.81l40.129 17.821c1.206 0.537 2.486 0.455 3.614-0.228 20.101-12.136 41.908-21.187 64.705-26.825 1.28-0.317 2.241-1.164 2.715-2.397l15.762-40.947c0.594-1.542 2.002-2.509 3.654-2.509h68.727c1.655 0 3.063 0.969 3.658 2.509l15.756 40.937c0.474 1.233 1.434 2.078 2.714 2.395 22.805 5.636 44.62 14.689 64.726 26.831 1.13 0.683 2.406 0.762 3.612 0.228l40.114-17.818c1.509-0.671 3.191-0.36 4.358 0.81l48.6 48.6c1.168 1.166 1.481 2.848 0.81 4.358l-17.821 40.128c-0.535 1.206-0.455 2.484 0.228 3.614 12.138 20.103 21.189 41.91 26.827 64.707 0.317 1.28 1.162 2.24 2.395 2.714l40.947 15.76c1.542 0.594 2.509 2.002 2.509 3.656v68.729c0.002 1.652-0.967 3.059-2.509 3.654zM517.008 123.72c-80.312 0-145.421 65.107-145.421 145.423 0 80.314 65.109 145.421 145.421 145.421 80.316 0 145.425-65.107 145.425-145.421s-65.109-145.423-145.425-145.423zM516.489 839.24c-55.362 0-100.24-44.881-100.24-100.244 0-55.351 44.864-100.227 100.215-100.24-84.708-0.009-156.998-53.146-185.382-127.903 9.938 6.764 22.879 8.086 34.124 3.093l27.532-12.227c14.905 7.923 30.546 14.408 46.683 19.355l10.815 28.092c5.241 13.617 18.261 22.556 32.851 22.556h68.727c14.592 0 27.614-8.941 32.855-22.558l10.813-28.090c16.139-4.949 31.776-11.435 46.683-19.355l27.53 12.227c10.306 4.578 22.039 3.848 31.577-1.515-28.797 73.921-100.652 126.314-184.758 126.326 55.349 0.013 100.217 44.887 100.217 100.24-0.002 55.365-44.883 100.244-100.244 100.244z" />
<glyph unicode="&#xe908;" glyph-name="Glove" d="M291.722 461.106c0 51.736 2.805 102.378 8.203 150.726h-248.996c-15.634-48.031-23.771-98.751-23.771-150.726 0-39.746 4.767-78.755 13.992-116.395h255.404c-3.192 37.802-4.832 76.778-4.832 116.395zM302.651 287.89h-243.78c24.017-62.954 61.254-120.697 110.313-169.768 64.712-64.738 144.507-108.889 231.447-129.24-18.88 26.182-36.026 59.408-50.899 99.204-21.477 57.457-37.401 125.607-47.082 199.804zM716.455 668.655h234.135c-23.53 49.658-55.673 95.427-95.669 135.436-64.717 64.735-144.508 108.885-231.446 129.239 18.879-26.186 36.023-59.411 50.898-99.204 18.119-48.476 32.278-104.568 42.081-165.471zM307.647 668.655c9.802 60.903 23.964 116.996 42.085 165.471 14.873 39.792 32.016 73.018 50.899 99.204-86.94-20.354-166.733-64.504-231.446-129.239-39.998-40.009-72.143-85.778-95.671-135.436h234.133zM721.451 287.89c-9.679-74.197-25.605-142.347-47.082-199.804-14.87-39.796-32.019-73.022-50.898-99.204 86.943 20.351 166.734 64.501 231.446 129.24 49.060 49.071 86.296 106.814 110.312 169.768h-243.777zM973.172 611.832h-248.994c5.4-48.349 8.203-98.992 8.203-150.726 0-39.615-1.644-78.594-4.834-116.395h255.407c9.221 37.64 13.991 76.649 13.991 116.395 0 51.974-8.138 102.695-23.773 150.726zM664.161 287.89h-304.219c9.167-66.953 23.695-128.221 43.017-179.911 30.876-82.604 71.658-131.924 109.093-131.924s78.219 49.319 109.095 131.924c19.316 51.69 33.846 112.958 43.013 179.911zM365.2 668.655h293.706c-9.103 53.598-21.795 102.86-37.759 145.578-30.882 82.606-71.662 131.925-109.097 131.925s-78.216-49.319-109.093-131.925c-15.966-42.718-28.656-91.98-37.758-145.578zM667.012 611.832h-309.923c-5.618-48.074-8.544-98.759-8.544-150.726 0-39.746 1.718-78.739 5.033-116.395h316.943c3.32 37.656 5.034 76.647 5.034 116.395 0.005 51.967-2.921 102.652-8.542 150.726z" />
<glyph unicode="&#xe909;" glyph-name="low-price-1" d="M182 477.999h180v-181.999h-180v181.999zM422 477.999h179.999v-241.999h-179.999v241.999zM512 718.001c16.569 0 29.999 13.43 29.999 29.999s-13.43 30-29.999 30c-16.569 0-29.999-13.431-29.999-30s13.43-29.999 29.999-29.999zM901.999 960h-779.999v-422h779.999v422zM362 718.001h-60v59.999h60v-59.999zM512 658c-49.628 0-90 40.372-90 90s40.372 90 90 90c49.628 0 90-40.372 90-90s-40.372-90-90-90zM722 718.001h-60v59.999h60v-59.999zM901.999 146h-90v331.999h-120.001v-331.999h-90l150-210 150 210z" />
<glyph unicode="&#xe90a;" glyph-name="Ping" d="M512 946.85c-96.712-0.129-189.425-38.604-257.81-106.99s-106.861-161.099-106.99-257.81c0-261.897 339.872-589.915 354.312-603.744 2.808-2.729 6.571-4.26 10.488-4.26s7.679 1.531 10.488 4.26c14.44 13.829 354.312 341.847 354.312 603.744-0.128 96.711-38.605 189.425-106.988 257.81-68.388 68.386-161.101 106.861-257.812 106.99zM512 414.848c-33.069 0-65.396 9.81-92.891 28.18-27.496 18.372-48.927 44.485-61.581 75.037s-15.966 64.17-9.515 96.604c6.452 32.434 22.376 62.225 45.759 85.609s53.176 39.308 85.609 45.759c32.434 6.452 66.053 3.141 96.604-9.514s56.663-34.085 75.039-61.581c18.371-27.496 28.175-59.823 28.175-92.891-0.026-44.336-17.654-86.847-49.004-118.197s-73.861-48.974-118.195-49.005z" />
<glyph unicode="&#xe90b;" glyph-name="Quality" d="M91.32 234.602c-52.43-13.398-91.32-61.023-91.32-117.577v-181.023h91.32v298.6zM151.357-64.002h424.914v302.36h-59.686l-29.243-169.017h-246.985l-29.243 169.017h-59.757v-302.36zM436.802 129.373l18.858 108.985h-183.623l18.858-108.985h145.907zM636.286 234.602v-298.6h83.875c-19.218 25.359-30.656 56.929-30.656 91.14 0 38.181 14.257 73.079 37.694 99.712-4.202 52.178-41.547 95.141-90.913 107.749zM363.814 960c-69.517 0-134.095-30.258-178.244-81.375h356.469c-44.14 51.117-108.718 81.375-178.225 81.375zM630.952 468.555v350.039h-534.274v-350.039c0-93.828 76.336-170.156 170.165-170.156h193.953c93.828 0 170.156 76.328 170.156 170.156zM560.327 473.867h-393.024v195.008h393.024v-195.008zM227.321 608.843h272.962v-74.944h-272.962v74.944zM968.086 178.304v117.125h-59.335v263.298l-82.805 82.803-42.445-42.445 65.218-65.227v-238.429h-59.328v-126.085c16.024 5.789 33.282 8.969 51.273 8.969l127.422-0.009zM706.856 675.712l42.454 42.454 41.788-41.79-42.452-42.452-41.79 41.788zM1012.805 118.272h-172.094c-50.249 0-91.14-40.883-91.14-91.132 0-50.258 40.891-91.141 91.14-91.141h172.094c6.157 0 11.173 5.008 11.173 11.165v159.945c0 6.157-5.016 11.163-11.173 11.163zM700.144 558.376l41.851 41.726 42.383-42.516-41.851-41.719-42.383 42.509zM824.858 683.094l41.851 41.719 42.383-42.516-41.851-41.719-42.383 42.516z" />
<glyph unicode="&#xe90c;" glyph-name="rating-2" d="M162.988 126.534h-20.821c-8.167 0-16.125 2.579-22.74 7.367s-11.551 11.543-14.102 19.301l-6.592 20.053c-0.31 0.948-0.913 1.775-1.721 2.361s-1.782 0.903-2.78 0.903c-0.998 0-1.972-0.317-2.78-0.903s-1.411-1.413-1.721-2.361l-6.613-20.118c-2.547-7.739-7.471-14.476-14.071-19.253s-14.539-7.348-22.687-7.35h-20.288c-0.992-0.008-1.957-0.326-2.758-0.91-0.801-0.586-1.399-1.409-1.707-2.351s-0.314-1.959-0.014-2.905c0.3-0.944 0.889-1.773 1.684-2.367l16.661-12.095c6.645-4.828 11.58-11.647 14.089-19.469 2.509-7.82 2.461-16.238-0.137-24.030l-6.4-19.414c-0.313-0.956-0.316-1.987-0.009-2.945 0.308-0.96 0.91-1.796 1.721-2.391s1.79-0.922 2.796-0.927c1.006-0.008 1.989 0.303 2.809 0.887l16.768 12.14c6.609 4.784 14.561 7.361 22.72 7.361s16.111-2.577 22.72-7.361l17.067-12.311c0.807-0.518 1.753-0.779 2.712-0.751s1.887 0.345 2.662 0.91c0.775 0.565 1.361 1.352 1.682 2.257s0.36 1.885 0.113 2.812l-6.4 19.818c-2.513 7.762-2.504 16.12 0.026 23.876s7.449 14.514 14.054 19.302l16.853 12.224c0.842 0.578 1.475 1.413 1.804 2.378 0.329 0.967 0.337 2.014 0.023 2.985s-0.934 1.817-1.767 2.406c-0.833 0.59-1.834 0.895-2.855 0.87zM371.729 126.525h-20.821c-8.167 0-16.124 2.579-22.74 7.367s-11.55 11.543-14.103 19.301l-6.592 20.053c-0.311 0.948-0.912 1.775-1.722 2.363-0.808 0.586-1.781 0.901-2.78 0.901-0.997 0-1.97-0.315-2.78-0.901-0.808-0.588-1.411-1.415-1.72-2.363l-6.614-20.118c-2.549-7.737-7.473-14.473-14.074-19.249-6.599-4.777-14.537-7.35-22.683-7.354h-20.287c-0.994-0.006-1.957-0.326-2.759-0.91-0.802-0.586-1.398-1.407-1.707-2.351-0.309-0.942-0.315-1.959-0.015-2.905 0.3-0.944 0.889-1.773 1.686-2.367l16.661-12.095c6.645-4.828 11.581-11.647 14.089-19.469 2.509-7.82 2.459-16.238-0.137-24.030l-6.4-19.414c-0.315-0.956-0.317-1.987-0.009-2.945s0.91-1.796 1.722-2.391c0.81-0.595 1.788-0.92 2.795-0.927s1.989 0.303 2.808 0.887l16.769 12.14c6.609 4.784 14.56 7.361 22.72 7.361s16.111-2.577 22.72-7.361l17.067-12.311c0.814-0.592 1.794-0.91 2.801-0.908 1.007 0 1.987 0.319 2.799 0.912 0.814 0.594 1.418 1.428 1.728 2.386 0.307 0.958 0.305 1.989-0.009 2.945l-6.4 19.818c-2.513 7.762-2.503 16.12 0.025 23.876 2.53 7.758 7.451 14.514 14.055 19.302l16.854 12.224c0.806 0.601 1.399 1.443 1.697 2.403 0.296 0.961 0.279 1.991-0.049 2.941s-0.95 1.773-1.775 2.346c-0.827 0.573-1.813 0.869-2.818 0.844zM580.47 126.534h-20.821c-8.165 0-16.124 2.579-22.74 7.367s-11.55 11.543-14.103 19.301l-6.592 20.053c-0.311 0.948-0.912 1.775-1.722 2.361-0.808 0.586-1.781 0.903-2.78 0.903-0.997 0-1.97-0.317-2.78-0.903-0.808-0.586-1.411-1.413-1.72-2.361l-6.635-20.118c-2.539-7.739-7.46-14.478-14.057-19.255s-14.533-7.348-22.68-7.348h-20.287c-0.994-0.008-1.957-0.326-2.759-0.91-0.8-0.586-1.398-1.409-1.707-2.351s-0.315-1.959-0.013-2.905c0.3-0.944 0.887-1.773 1.684-2.367l16.661-12.095c6.647-4.828 11.581-11.647 14.089-19.469 2.509-7.82 2.459-16.238-0.137-24.030l-6.4-19.414c-0.313-0.956-0.317-1.987-0.009-2.945 0.307-0.96 0.91-1.796 1.722-2.391 0.81-0.595 1.788-0.922 2.795-0.927 1.007-0.008 1.989 0.303 2.808 0.887l16.769 12.14c6.609 4.784 14.56 7.361 22.72 7.361s16.111-2.577 22.72-7.361l17.067-12.311c0.808-0.518 1.754-0.779 2.712-0.751 0.96 0.028 1.887 0.345 2.662 0.91s1.362 1.352 1.682 2.257c0.32 0.905 0.36 1.885 0.112 2.812l-6.4 19.818c-2.513 7.762-2.503 16.12 0.027 23.876s7.449 14.514 14.053 19.302l16.854 12.224c0.842 0.578 1.475 1.413 1.803 2.378 0.33 0.967 0.338 2.014 0.023 2.985-0.313 0.971-0.933 1.817-1.765 2.406-0.834 0.59-1.836 0.895-2.856 0.87zM789.174 126.534h-20.821c-8.167 0-16.126 2.579-22.74 7.367-6.616 4.788-11.55 11.543-14.103 19.301l-6.592 20.053c-0.311 0.948-0.914 1.775-1.722 2.361s-1.781 0.903-2.78 0.903c-0.999 0-1.972-0.317-2.78-0.903s-1.411-1.413-1.722-2.361l-6.635-20.118c-2.539-7.739-7.458-14.478-14.055-19.255s-14.535-7.348-22.68-7.348h-20.288c-0.992-0.008-1.957-0.326-2.757-0.91-0.802-0.586-1.399-1.409-1.709-2.351-0.307-0.942-0.313-1.959-0.013-2.905 0.3-0.944 0.889-1.773 1.684-2.367l16.663-12.095c6.645-4.828 11.579-11.647 14.088-19.469 2.509-7.82 2.461-16.238-0.137-24.030l-6.4-19.414c-0.313-0.956-0.315-1.987-0.008-2.945 0.307-0.96 0.91-1.796 1.72-2.391 0.812-0.595 1.79-0.922 2.797-0.927 1.007-0.008 1.989 0.303 2.808 0.887l16.767 12.14c6.607 4.782 14.554 7.358 22.71 7.358s16.103-2.575 22.71-7.358l17.067-12.311c0.814-0.592 1.794-0.91 2.801-0.908 1.005 0 1.985 0.319 2.799 0.912 0.814 0.592 1.417 1.428 1.726 2.386s0.305 1.989-0.009 2.945l-6.4 19.818c-2.513 7.762-2.503 16.12 0.027 23.876 2.53 7.758 7.449 14.514 14.053 19.302l16.854 12.224c0.804 0.599 1.398 1.439 1.695 2.397 0.296 0.96 0.281 1.987-0.044 2.937-0.326 0.948-0.944 1.769-1.765 2.346-0.823 0.575-1.805 0.874-2.808 0.853zM997.861 126.534h-20.842c-8.167 0-16.126 2.579-22.74 7.367-6.616 4.788-11.55 11.543-14.103 19.301l-6.592 20.053c-0.311 0.948-0.914 1.775-1.722 2.361s-1.781 0.903-2.78 0.903c-0.999 0-1.972-0.317-2.78-0.903s-1.411-1.413-1.722-2.361l-6.633-20.118c-2.541-7.739-7.46-14.478-14.057-19.255s-14.535-7.348-22.68-7.348h-20.288c-0.992-0.008-1.957-0.326-2.757-0.91-0.802-0.586-1.399-1.409-1.709-2.351-0.307-0.942-0.313-1.959-0.013-2.905 0.3-0.944 0.889-1.773 1.686-2.367l16.661-12.095c6.645-4.828 11.579-11.647 14.088-19.469 2.509-7.82 2.461-16.238-0.137-24.030l-6.4-19.414c-0.313-0.956-0.315-1.987-0.008-2.945 0.307-0.96 0.91-1.796 1.72-2.391 0.812-0.595 1.79-0.922 2.797-0.927 1.007-0.008 1.989 0.303 2.808 0.887l16.769 12.14c6.605 4.782 14.552 7.358 22.708 7.358s16.103-2.575 22.71-7.358l17.067-12.311c0.814-0.592 1.794-0.91 2.801-0.908 1.005 0 1.985 0.319 2.799 0.912 0.814 0.592 1.417 1.428 1.726 2.386s0.305 1.989-0.008 2.945l-6.4 19.818c-2.514 7.762-2.505 16.12 0.025 23.876 2.53 7.758 7.449 14.514 14.055 19.302l16.852 12.224c0.804 0.599 1.396 1.435 1.693 2.393 0.298 0.956 0.283 1.982-0.040 2.93s-0.937 1.769-1.754 2.348c-0.819 0.576-1.8 0.878-2.801 0.863zM777.569 608.254h-199.636c-1.051-0.009-2.084 0.267-2.99 0.798-0.906 0.533-1.652 1.301-2.154 2.222-0.504 0.922-0.749 1.963-0.707 3.013 0.044 1.051 0.37 2.069 0.944 2.947 25.016 36.176 41.294 77.663 47.552 121.196 3.499 42.154-9.066 121.087-71.145 121.087-63.211 0-56.661-61.099-66.133-96.767-8.789-33.365-19.2-59.436-72.683-106.86-2.133-1.792-4.054-3.776-6.059-5.738v-368.896c22.898-12.523 47.65-21.303 73.322-26.006h278.613c10.712 0 20.986 4.255 28.564 11.827 7.576 7.574 11.837 17.846 11.842 28.558 0 22.293-7.553 40.384-29.867 40.384 5.382-0.123 10.735 0.829 15.745 2.805 5.008 1.974 9.573 4.93 13.424 8.693 3.849 3.764 6.91 8.258 9 13.221 2.088 4.963 3.165 10.291 3.165 15.677 0 5.384-1.077 10.714-3.165 15.677-2.090 4.963-5.15 9.457-9 13.221-3.851 3.762-8.416 6.719-13.424 8.693-5.010 1.974-10.363 2.928-15.745 2.805 11.863-0.245 23.44 3.654 32.738 11.025s15.737 17.753 18.206 29.358v14.933c0 10.716-4.257 20.994-11.835 28.571s-17.856 11.833-28.571 11.833c5.306-0.002 10.559 1.041 15.461 3.068 4.902 2.029 9.356 5.002 13.109 8.753s6.73 8.203 8.759 13.103c2.031 4.902 3.078 10.155 3.078 15.461v14.933c0 10.716-4.257 20.992-11.835 28.57s-17.856 11.835-28.571 11.835zM361.965 637.315h-163.669v-382.058h163.669v382.058zM298.35 320.002h-42.667v42.837h42.667v-42.837z" />
<glyph unicode="&#xe90d;" glyph-name="right-arrow-1-1" d="M430.417 738.449l-18.908-70.564 282.254-75.63-517.655-298.869 36.897-63.908 517.658 298.869-75.631-282.257 70.564-18.908 108.042 403.223-403.221 108.043z" />
<glyph unicode="&#xe90e;" glyph-name="share-1" d="M812.002 295.882c-59.284 0-111.526-29.16-144.336-73.511l-283.686 145.263c4.71 16.055 8.020 32.692 8.020 50.248 0 23.812-4.882 46.45-13.316 67.272l296.891 178.656c33.039-38.776 81.601-63.928 136.427-63.928 99.256 0 180.001 80.742 180.001 180.001s-80.745 180-180.001 180c-99.262 0-180.001-80.742-180.001-180 0-22.874 4.71-44.572 12.523-64.716l-297.774-179.18c-33.012 37.624-80.876 61.896-134.75 61.896-99.258 0-180-80.742-180-180 0-99.256 80.742-180.001 180-180.001 60.26 0 113.382 30.021 146.070 75.613l282.749-144.788c-5.204-16.812-8.818-34.322-8.818-52.826 0-99.256 80.739-180.001 180.001-180.001 99.256 0 180.001 80.745 180.001 180.001 0 99.262-80.745 180.001-180.001 180.001z" />
<glyph unicode="&#xe90f;" glyph-name="soldering-1" d="M859.078 288.66l-1.397-2.484c-3.879-7.292-1.241-16.446 6.050-20.325 2.329-1.241 4.656-1.861 7.138-1.861 5.431 0 10.551 2.793 13.188 7.913l1.395 2.482c18.464 34.133 39.255 72.766 5.586 136.222-26.686 50.114-0.155 111.243 0.466 112.485 3.413 7.602 0 16.448-7.602 19.86s-16.448 0-19.86-7.447c-1.397-3.104-33.358-75.403 0.466-139.017 26.22-49.337 12.256-75.093-5.431-107.829zM949.079 166.246l-1.397-2.482c-3.879-7.293-1.241-16.448 6.050-20.326 2.327-1.241 4.654-1.861 7.136-1.861 5.431 0 10.551 2.793 13.188 7.913l1.397 2.482c18.464 34.133 39.253 72.766 5.586 136.222-26.688 50.114-0.155 111.243 0.464 112.485 3.415 7.604 0 16.448-7.602 19.86s-16.446 0-19.859-7.447c-1.397-3.104-33.358-75.403 0.464-139.017 26.221-49.337 12.258-75.248-5.429-107.829zM224.807 582.204l258.172-278.498 136.999 136.843-278.807 258.173c-11.792 11.015-30.254 10.704-41.581-0.777l-73.852-73.852c-11.481-11.481-11.947-29.945-0.93-41.89zM484.4 222.565c11.015-11.015 29.013-11.015 40.030 0l176.407 176.407c11.015 11.017 11.015 29.015 0 40.030s-29.013 11.015-40.030 0l-176.407-176.407c-11.015-11.017-11.015-28.859 0-40.030zM965.651 44.449h-892.277c-19.394 0-35.064-15.671-35.064-35.065s15.67-35.063 35.064-35.063h892.432c19.392 0 35.063 15.669 35.063 35.063-0.155 19.239-15.824 35.065-35.219 35.065zM801.201 164.85l-42.51-42.512 47.785-47.943h66.715l-4.654 23.118-67.337 67.337zM579.346 234.976l114.19-114.037c5.897-5.895 15.36-5.895 21.257 0l87.815 87.815c5.897 5.897 5.897 15.36 0 21.257l-114.037 114.037-109.225-109.072zM715.102 200.222c0.932 1.863 2.018 3.413 3.259 4.965 5.586 5.586 15.671 5.586 21.255 0 1.552-1.552 2.638-3.102 3.259-4.965 0.775-1.863 1.241-3.723 1.241-5.741 0-2.016-0.466-3.879-1.241-5.74-0.777-2.016-1.863-3.413-3.259-4.965-2.638-2.638-6.67-4.345-10.549-4.345-4.034 0-7.758 1.707-10.706 4.345-1.397 1.552-2.482 2.948-3.259 4.965-0.775 1.861-1.086 3.723-1.086 5.74 0.155 1.863 0.466 3.879 1.086 5.741zM703.001 235.441c0-0.93 0-2.016-0.311-2.791-0.155-0.932-0.464-2.018-0.775-2.793-0.466-0.93-0.932-1.863-1.552-2.482-0.466-0.777-1.086-1.707-1.863-2.327-2.791-2.793-6.67-4.345-10.704-4.345-2.018 0-3.879 0.311-5.741 1.086-1.861 0.777-3.413 1.863-4.809 3.259-2.793 2.638-4.499 6.67-4.499 10.549 0 4.034 1.705 7.913 4.499 10.706 1.397 1.552 2.948 2.482 4.809 3.257 5.586 2.329 12.258 0.932 16.446-3.257 2.948-2.948 4.5-6.827 4.5-10.861zM183.691 704.464c3.104 8.379 7.758 16.137 14.43 22.962 0.93 0.93 2.016 1.552 2.948 2.327-47.167 21.101-149.411 78.507-147.705 176.563 0.155 8.378-6.516 15.205-14.739 15.36-8.068-0.466-15.205-6.517-15.36-14.739-1.862-113.261 105.658-177.337 160.426-202.473zM265.619 706.638c-13.033 12.412-33.513 12.256-46.235-0.466s-12.878-33.358-0.464-46.234l46.7 46.7z" />
<glyph unicode="&#xe910;" glyph-name="team-1" d="M961.364 320.733v64.631h-297.94c0-83.628-67.793-151.424-151.424-151.424s-151.424 67.793-151.424 151.424h-297.94v-64.631l129.376-13.698c8.070-33.082 21.136-64.205 38.354-92.525l-81.816-101.194 91.403-91.401 101.192 81.815c28.321-17.217 59.446-30.282 92.525-38.353l13.698-129.375h129.261l13.701 129.375c33.080 8.071 64.202 21.136 92.523 38.353l101.194-81.815 91.401 91.401-81.815 101.194c17.217 28.321 30.282 59.443 38.353 92.525l129.375 13.698zM512.021 960c-63.998 0-116.066-52.068-116.066-116.066s52.068-116.064 116.066-116.064c63.998 0 116.066 52.066 116.066 116.064s-52.068 116.066-116.066 116.066zM635.564 695.785h-247.149c-56.897-0.002-103.187-46.292-103.187-103.189v-147.228h453.523v147.228c0 56.897-46.289 103.189-103.187 103.189zM265.793 906.386c-57.333 0-103.975-46.644-103.975-103.974 0-56.87 45.902-103.195 102.6-103.937 23.48 27.464 55.878 47.065 92.686 54.255 8.069 14.77 12.663 31.698 12.663 49.682 0 57.332-46.643 103.974-103.973 103.974zM155.074 669.694c-50.97 0-92.438-41.467-92.438-92.439v-131.889h162.602v147.23c0 27.869 7.036 54.123 19.407 77.098h-89.571zM758.246 906.386c-57.332 0-103.973-46.644-103.973-103.974 0-17.982 4.592-34.912 12.66-49.682 36.808-7.19 69.206-26.791 92.688-54.255 56.697 0.74 102.598 47.067 102.598 103.937 0 57.332-46.641 103.974-103.973 103.974zM868.934 669.694h-89.57c12.369-22.975 19.405-49.229 19.405-77.098v-147.228h162.602v131.889c0 50.97-41.467 92.437-92.437 92.437z" />
<glyph unicode="&#xe911;" glyph-name="telephone-call-1" d="M915.366 239.875c-26.323 22.112-180.706 120.032-206.366 115.537-12.047-2.144-21.263-12.427-45.929-41.9-11.409-14.511-23.931-28.094-37.466-40.635-24.793 5.999-48.792 14.908-71.499 26.546-89.049 43.424-160.99 115.504-204.318 204.711-11.618 22.744-20.514 46.782-26.504 71.616 12.521 13.554 26.085 26.102 40.568 37.528 29.395 24.706 39.695 33.877 41.833 46.004 4.488 25.763-93.365 180.337-115.351 206.702-9.216 10.921-17.589 18.251-28.311 18.251-31.081 0-171.671-174.123-171.671-196.688 0-1.84 3.012-183.112 231.575-416.031 232.538-228.936 413.515-231.948 415.352-231.948 22.528 0 196.367 140.818 196.367 171.948 0 10.74-7.319 19.125-18.281 28.359zM722.824 492.077h60.235c-0.072 63.968-25.48 125.296-70.65 170.529s-106.412 70.675-170.291 70.747v-60.318c47.912-0.048 93.847-19.128 127.723-53.054 33.882-33.926 52.935-79.925 52.983-127.903zM873.412 492.068h60.235c-0.12 103.973-41.406 203.653-114.808 277.172s-172.917 114.876-276.721 114.996v-60.333c87.833-0.104 172.038-35.099 234.147-97.307s97.045-146.552 97.147-234.528z" />
<glyph unicode="&#xe912;" glyph-name="verified-2" d="M532.515 849.372c36.853-8.77 72.050-23.382 104.309-43.244l67.782 30.104 79.887-79.888-30.095-67.759c19.87-32.265 34.483-67.475 43.252-104.339l69.155-26.615v-112.978l-23.399-9.007c-13.127 12.822-31.060 20.744-50.788 20.744h-94.901c2.601 14.523 3.959 29.478 3.959 44.751 0 139.327-112.947 252.275-252.274 252.275-139.329 0-252.277-112.948-252.277-252.275 0-136.026 107.664-246.889 242.423-252.067v-18.571c0-22.552 8.75-41.723 23.193-57.442v-89.319h-69.828l-26.624 69.17c-36.853 8.769-72.050 23.382-104.309 43.243l-67.782-30.106-79.888 79.887 30.096 67.763c-19.87 32.26-34.48 67.475-43.252 104.337l-69.152 26.615v112.978l69.164 26.622c8.77 36.855 23.382 72.059 43.248 104.317l-30.102 67.774 79.886 79.89 67.782-30.104c32.258 19.862 67.455 34.474 104.309 43.244l26.626 69.17h112.976l26.626-69.17zM595.883 342.868v-63.462c0-13.458 11.011-24.467 24.469-24.467h222.842c13.458 0 24.467 11.011 24.467 24.467v63.462h-271.778zM683.81 134.66c0-26.489 21.473-47.965 47.965-47.965 26.489 0 47.965 21.476 47.965 47.965 0 26.406-21.391 47.965-47.965 47.965-26.574-0.002-47.965-21.558-47.965-47.965zM968.802 186.773c13.702 11.247 23.197 25.291 23.197 43.729v92.851c0 10.748-8.767 19.515-19.515 19.515h-72.819v-63.462c0-31.117-25.352-56.468-56.468-56.468h-222.844c-31.119 0-56.468 25.349-56.468 56.468v63.462h-72.822c-10.748 0-19.515-8.767-19.515-19.515v-92.853c0-18.434 9.497-32.48 23.195-43.725 37.208-30.539 111.413-39.049 157.607-42.825 4.608 39.773 38.411 70.671 79.425 70.671 40.999 0 74.793-30.879 79.417-70.632 46.111 3.784 120.466 12.295 157.611 42.784zM494.742 148.136v-132.564c0-20.948 17.14-38.088 38.088-38.088h397.881c20.951 0 38.088 17.14 38.088 38.088v132.562c-34.21-19.162-93.877-31.345-160.456-36.559-9.909-32.903-40.446-56.878-76.571-56.878s-66.662 23.975-76.573 56.876c-66.573 5.212-126.24 17.397-160.456 36.563zM833.377 374.869v8.761c0 22.419-18.34 40.762-40.76 40.762h-121.684c-22.417 0-40.76-18.343-40.76-40.762v-8.761h36.084v8.761c0 2.501 2.179 4.678 4.678 4.678h121.684c2.501 0 4.676-2.177 4.676-4.678v-8.761h36.082zM302.91 531.957c-17.308-17.308-17.31-45.633 0-62.941l69.225-69.222c19.567-19.569 49.084-28.537 71.151-6.471l152.613 152.611c17.308 17.31 17.308 45.633 0 62.941v0.002c-17.308 17.308-45.633 17.308-62.943 0l-122.009-122.013-45.095 45.095c-17.312 17.31-45.633 17.308-62.941-0.002z" />
<glyph unicode="&#xe913;" glyph-name="welding-1-1" d="M450.026 357.546h-84.821c-154.454 0-279.894-125.44-279.894-279.894v-31.914c0-9.387 7.509-17.067 17.067-17.067h142.336v101.717c0 9.387 7.68 17.067 17.067 17.067s17.066-7.68 17.066-17.067v-101.717h257.536v101.717c0 9.387 7.68 17.067 17.067 17.067s17.067-7.68 17.067-17.067v-101.717h142.336c9.557 0 17.066 7.68 17.066 17.067v31.914c0 154.454-125.44 279.894-279.893 279.894zM891.565 316.245v161.109c0 5.632-2.731 10.923-7.339 13.995l-54.954 37.717c-7.68 5.291-18.432 3.243-23.723-4.437-5.291-7.851-3.413-18.432 4.437-23.723l47.446-32.597v-152.064c-26.966-7.509-47.104-32.085-47.104-61.611v-206.848c0-9.557 7.68-17.066 17.066-17.066h94.208c9.387 0 17.067 7.509 17.067 17.066v206.848c0 29.526-20.139 54.102-47.104 61.611zM816.462 554.667c9.216 2.219 14.848 11.264 12.8 20.48l-13.141 56.832c-1.536 6.315-6.486 11.264-12.8 12.8-6.486 1.536-12.971-0.683-17.067-5.803l-31.403-38.058-49.152 4.266c-6.656 0.683-12.629-2.56-16.042-8.192s-3.243-12.458 0.17-18.090l26.624-41.643-19.285-45.397c-2.56-5.974-1.365-12.8 2.731-17.75 3.242-3.754 8.021-5.973 12.97-5.973 1.366 0 2.902 0.171 4.267 0.512l56.491 14.677c9.045 2.39 14.677 11.606 12.288 20.822-2.39 9.045-11.606 14.677-20.822 12.288l-23.040-5.974 9.216 21.846c2.219 5.12 1.707 11.093-1.365 15.872l-12.8 19.968 23.723-2.048c5.632-0.512 11.093 1.877 14.677 6.144l15.189 18.432 5.291-23.211c2.048-9.216 11.264-14.848 20.48-12.8zM594.088 804.692c0 34.475-28.16 62.464-62.635 62.464h-247.638c-34.474 0-62.634-27.989-62.634-62.464v-18.602h372.907v18.602zM281.237 415.232c41.814-13.994 84.139-20.821 126.464-20.821 42.155 0 84.48 6.827 126.464 20.821 27.648 9.046 48.128 31.062 56.15 57.686h-365.398c8.022-26.795 28.502-48.811 56.32-57.686zM648.709 697.858c0 17.067-8.021 32.085-20.48 42.155v-131.414c12.459 10.070 20.48 25.088 20.48 42.155v47.104zM187.038 608.427v131.413c-12.459-10.069-20.48-25.088-20.48-42.155v-47.104c0-17.066 8.021-32.085 20.48-42.154zM221.181 752.126h372.907v-245.077h-372.907v245.077z" />
<glyph unicode="&#xe914;" glyph-name="welding-machine-1" d="M837.202 279.18h-114.853c-1.383 0-4.151 0-5.536-1.383-1.383-1.383-2.766-1.383-4.151-2.768l-132.843-136.994h-132.843l-132.844 136.994c-2.766 2.768-6.919 4.151-9.685 4.151h-114.855c-8.302 0-13.838-5.534-13.838-13.837v-260.153c0-8.302 5.536-13.837 13.838-13.837h650.379c8.302 0 13.838 5.534 13.838 13.837v260.153c-2.768 8.302-9.687 13.837-16.606 13.837zM471.861 174.012h78.875c4.151 0 6.919 1.385 9.687 4.153l116.238 121.773c5.534 5.534 5.534 13.838 0 19.373-5.536 5.536-13.838 5.536-19.374 0l-112.085-117.621h-67.806l-112.085 117.621c-5.536 5.536-13.838 5.536-19.374 0-5.534-5.534-5.534-13.838 0-19.373l116.238-121.773c2.768-2.768 6.919-4.153 9.687-4.153zM954.814 904.65h-885.622c-8.303 0-13.838-5.535-13.838-13.838s5.535-13.838 13.838-13.838h282.292v-221.405c0-26.293 17.989-47.049 41.513-53.968v-127.308c0-30.443 24.908-55.351 55.351-55.351h17.989v-143.913c0-4.153 1.383-6.919 4.151-9.687l31.827-31.827c2.768-2.768 6.919-4.151 9.687-4.151 2.766 0 6.918 1.383 9.685 4.151l31.827 31.827c2.768 2.768 4.151 5.534 4.151 9.687v143.913h17.989c30.443 0 55.351 24.908 55.351 55.351v127.308c23.525 5.534 41.513 27.675 41.513 53.968v221.405h282.293c8.302 0 13.837 5.535 13.837 13.838s-5.534 13.838-13.837 13.838zM420.673 821.623c0 8.303 5.534 13.838 13.837 13.838s13.838-5.535 13.838-13.838v-84.411c0-8.302-5.534-13.838-13.838-13.838-8.302 0-13.837 5.536-13.837 13.838v84.411zM420.673 687.395c0 8.304 5.534 13.838 13.837 13.838s13.838-5.534 13.838-13.838v-4.151c0-8.302-5.534-13.838-13.838-13.838-8.302 0-13.837 5.536-13.837 13.838v4.151zM603.333 474.293c0-15.221-12.455-27.676-27.676-27.676h-128.692c-15.221 0-27.676 12.455-27.676 27.676v125.924h26.292v-69.188c0-8.304 5.536-13.838 13.838-13.838s13.838 5.534 13.838 13.838v69.188h24.908v-103.783c0-8.302 5.534-13.838 13.838-13.838 8.302 0 13.837 5.536 13.837 13.838v103.783h23.525v-69.188c0-8.304 5.534-13.838 13.838-13.838 8.302 0 13.837 5.534 13.837 13.838v69.188h26.293v-125.924z" />
<glyph unicode="&#xe915;" glyph-name="welding-mask-3-1" d="M1003.518 348.749h-12.603v137.058c0 9.452-7.877 15.754-15.754 15.754-9.452 0-15.754-6.302-15.754-15.754v-44.111h-36.234v44.111c0 9.452-7.877 15.754-15.754 15.754-9.452 0-15.754-6.302-15.754-15.754v-44.111h-130.757c-7.877 0-15.754-6.302-15.754-15.754s7.877-15.754 15.754-15.754h130.757v-61.44h-14.178c-7.877 0-15.754-6.302-15.754-15.754v-267.815c0-26.782 22.055-47.262 47.262-47.262h15.754c0-23.631-18.905-42.535-42.535-42.535h-247.335c-23.631 0-44.111 18.905-45.686 40.96-1.575 25.206 17.329 47.262 44.111 47.262h69.317c44.111 0 78.769 34.658 78.769 78.769v28.357c0 9.452-7.877 15.754-15.754 15.754s-15.754-6.302-15.754-15.754v-28.357c0-26.782-20.48-47.262-47.262-47.262h-69.317c-44.111 0-77.194-36.234-75.618-80.345 3.151-39.385 36.234-70.892 77.194-70.892h247.335c40.96 0 74.043 33.083 74.043 74.043h15.754c26.782 0 47.262 20.48 47.262 47.262v267.815c0 9.452-7.877 15.754-15.754 15.754zM921.598 411.765h36.234v-61.44h-36.234v61.44zM274.123 725.266v-220.554h283.569v220.554h-283.569zM384.4 668.552l-53.563-48.837c-6.302-6.302-15.754-6.302-22.055 0s-6.302 15.754 0 22.055l53.563 50.412c6.302 6.302 15.754 6.302 22.055 0s6.302-17.329 0-23.631zM680.579 388.134v211.102h45.686v-47.262c0-9.452 7.877-15.754 15.754-15.754h50.412c17.329 0 31.508 14.178 31.508 31.508v94.523c0 17.329-14.178 31.508-31.508 31.508h-50.412c-7.877 0-15.754-6.302-15.754-15.754v-47.262h-45.686v141.785c0 133.908-107.126 170.142-152.812 178.018h-1.575c-1.575 0-3.151 0-4.726 0h-214.252c-1.575 0-3.151 0-4.726 0h-1.575c-45.686-9.452-152.813-45.686-152.813-178.018v-141.785h-44.111v47.262c0 9.452-6.302 15.754-15.754 15.754h-51.988c-17.329 0-31.508-14.178-31.508-31.508v-94.523c0-17.329 14.178-31.508 31.508-31.508h50.412c9.452 0 15.754 6.302 15.754 15.754v47.262h45.686v-209.526c0-132.332 89.797-269.391 239.459-269.391h53.563c149.662-1.575 239.458 135.483 239.458 267.815zM587.631 503.137c0-17.329-14.178-31.508-31.508-31.508h-283.569c-17.329 0-31.508 14.178-31.508 31.508v220.554c0 17.329 14.178 31.508 31.508 31.508h283.569c17.329 0 31.508-14.178 31.508-31.508v-220.554z" />
<glyph unicode="&#xe916;" glyph-name="welding-mask-1" d="M836.701 694.338l-73.635 61.998c-0.747 0.652-1.584 1.21-2.421 1.583 11.637 20.015 9.96 45.987-6.051 64.326-20.11 22.993-114.501 46.917-114.501 46.917s11.264-96.722 31.371-119.622c16.754-19.177 43.845-23.925 65.723-13.311 0.931-2.049 2.418-4.004 4.283-5.587l73.635-61.998c21.504-18.155 30.44-47.29 22.712-74.378l-45.33-158.898-23.772 6.779c-9.105 2.596-18.595-2.68-21.191-11.788l-99.765-349.804c-2.596-9.108 2.68-18.595 11.788-21.191l48.8-13.917h-214.067c71.584 18.315 124.588 83.061 124.588 160.349v284.539h20.236c15.423 0 27.928 12.505 27.928 27.925v52.721c0 15.426-12.505 27.928-27.928 27.928h-20.269c-0.753 125.775-102.924 227.43-228.876 227.43h-47.758c-125.95 0-228.030-101.655-228.781-227.43h-20.301c-15.424 0-27.927-12.502-27.927-27.928v-52.721c0-15.42 12.503-27.925 27.927-27.925h20.266v-284.539c0-77.288 53.004-142.035 124.587-160.349h-172.78c-5.141 0-9.309-4.165-9.309-9.309 0-5.147 4.168-9.309 9.309-9.309h797.381c5.141 0 9.309 4.162 9.309 9.309 0 5.144-4.168 9.309-9.309 9.309h-103.159c0.464 0.928 0.87 1.9 1.166 2.933l99.765 349.804c2.596 9.108-2.68 18.595-11.788 21.191l-23.766 6.779 45.237 158.895c11.357 39.749-1.768 82.663-33.325 109.288zM749.381 744.327c-12.101-10.518-30.44-9.309-41.053 2.793-10.613 12.009-16.571 63.023-16.571 63.023s49.806-12.66 60.323-24.762c10.613-12.008 9.403-30.44-2.699-41.053zM214.387 345.618v175.291c0 14.616 11.915 26.531 26.531 26.531h250.322c14.709 0 26.624-11.915 26.624-26.531v-175.291c0-14.706-11.915-26.531-26.624-26.531h-250.322c-14.615 0-26.531 11.824-26.531 26.531zM958.886 45.442h-47.224c-5.141 0-9.309-4.165-9.309-9.309s4.168-9.309 9.309-9.309h47.224c5.141 0 9.309 4.165 9.309 9.309s-4.168 9.309-9.309 9.309z" />
<glyph unicode="&#xe917;" glyph-name="email" horiz-adv-x="1331" d="M55.858 834.025c168.648-142.826 464.573-394.102 551.549-472.449 11.676-10.575 24.199-15.951 37.2-15.951 12.975 0 25.476 5.326 37.126 15.849 87.050 78.425 382.971 329.724 551.624 472.55 10.506 8.875 12.104 24.475 3.604 35.326-19.651 25.073-48.957 39.449-80.353 39.449h-1024c-31.399 0-60.701-14.376-80.35-39.451-8.501-10.848-6.9-26.448 3.6-35.323zM1244.15 756.625c-9.073 4.224-19.753 2.75-27.3-3.701-187.023-158.548-425.725-361.776-500.826-429.448-42.151-38.050-100.651-38.050-142.9 0.050-80.050 72.124-348.102 300-500.775 429.401-7.601 6.451-18.3 7.875-27.3 3.701-9.048-4.202-14.849-13.253-14.849-23.227v-643.8c0-56.477 45.924-102.401 102.401-102.401h1023.997c56.474 0 102.4 45.924 102.4 102.401v643.8c0 9.975-5.796 19.048-14.848 23.224z" />
<glyph unicode="&#xe918;" glyph-name="pin" horiz-adv-x="853" d="M451.167 960c-101.802-0.135-199.395-40.635-271.38-112.62s-112.485-169.578-112.62-271.38c0-275.68 357.76-620.962 372.96-635.52 2.957-2.876 6.917-4.48 11.040-4.48s8.084 1.604 11.040 4.48c15.2 14.558 372.96 359.84 372.96 635.52-0.135 101.802-40.636 199.395-112.62 271.38s-169.578 112.485-271.38 112.62v0zM451.167 400c-34.809 0-68.838 10.322-97.78 29.661s-51.502 46.827-64.823 78.987c-13.321 32.16-16.806 67.547-10.016 101.687s23.554 65.501 48.167 90.115c24.614 24.614 55.974 41.376 90.115 48.167s69.528 3.306 101.687-10.016c32.16-13.321 59.647-35.879 78.987-64.823s29.661-62.971 29.661-97.78c-0.028-46.67-18.58-91.419-51.58-124.42s-77.751-51.552-124.42-51.58z" />
<glyph unicode="&#xe919;" glyph-name="youtube" horiz-adv-x="1489" d="M1397.453 758.182c30.543-106.909 30.543-336 30.543-336s0-226.546-30.543-336c-15.267-61.094-63.637-106.913-122.182-122.18-109.456-28.002-542.18-28.002-542.18-28.002s-435.273 0-544.727 28.002c-58.546 15.267-106.909 61.086-122.182 122.18-30.546 109.454-30.546 336-30.546 336s0 229.090 30.546 336c15.273 61.091 63.636 109.455 122.182 124.727 109.454 30.545 544.727 30.545 544.727 30.545s432.724 0 542.18-30.545c58.545-15.273 106.915-63.636 122.182-124.727zM590.545 216l361.458 206.182-361.458 206.181v-412.364z" />
<glyph unicode="&#xe91a;" glyph-name="pinterest-p" horiz-adv-x="751" d="M380.8 895.733c175.467 0 336-121.333 336-306.133 0-173.6-89.6-367.733-287.467-367.733-48.534 0-106.4 24.269-130.666 67.2-41.066-168.003-39.2-194.135-132.534-322.934-9.333-3.734-7.466-3.734-13.066 3.734-3.734 35.465-7.467 69.065-7.467 104.53 0 113.869 52.267 280.003 78.4 390.136-14.933 29.867-18.667 63.467-18.667 95.2 0 149.333 175.466 171.733 175.466 48.534 0-72.8-50.4-141.867-50.4-212.8 0-46.666 41.067-80.267 87.734-80.267 128.8 0 168 184.8 168 283.733 0 132.533-93.334 205.333-222.134 205.333-147.466 0-261.333-106.4-261.333-255.733 0-72.8 44.8-110.133 44.8-126.934 0-14.933-11.201-65.333-29.867-65.333-44.8 0-117.6 74.667-117.6 205.333 0 207.2 188.533 334.134 380.8 334.134z" />
<glyph unicode="&#xe91b;" glyph-name="x-twitter" horiz-adv-x="1195" d="M907.665 954.667h163.337l-359.335-413 424.666-557.667h-331.333l-261.333 338.333-296.333-338.333h-165.667l385 438.666-406 532h340.666l233.334-310.333 272.998 310.333zM849.333 81.997h90.998l-587.997 779.337h-98l594.999-779.337z" />
<glyph unicode="&#xe91c;" glyph-name="facebook-f" horiz-adv-x="614" d="M520.8 371.2h-140.001v-418.133h-186.666v418.133h-153.067v171.733h153.067v132.534c0 149.333 89.6 233.333 225.866 233.333 65.334 0 134.4-13.067 134.4-13.067v-147.467h-76.533c-74.667 0-97.067-44.8-97.067-93.334v-112h166.134l-26.133-171.733z" />
<glyph unicode="&#xe91d;" glyph-name="trolley" d="M64 864h102.656l113.12-480.829c-24.67-2.022-47.599-13.517-63.976-32.077-16.378-18.555-24.933-42.737-23.869-67.466s11.663-48.087 29.575-65.167c17.911-17.085 41.743-26.568 66.494-26.46h544c8.489 0 16.625 3.369 22.625 9.375 6.006 6.001 9.375 14.136 9.375 22.625s-3.369 16.625-9.375 22.625c-6.001 6.006-14.136 9.375-22.625 9.375h-544c-8.487 0-16.626 3.369-22.627 9.375-6.001 6.001-9.373 14.136-9.373 22.625s3.372 16.625 9.373 22.625c6.001 6.006 14.14 9.375 22.627 9.375h540.227c21.647-0.056 42.68 7.235 59.653 20.68s28.882 32.246 33.782 53.335l67.809 288.001c3.318 14.093 3.4 28.754 0.251 42.885-3.154 14.131-9.462 27.365-18.452 38.714s-20.429 20.516-33.464 26.817c-13.036 6.301-27.325 9.572-41.805 9.569h-648.544l-24.288 103.328c-1.652 7.024-5.63 13.284-11.289 17.763s-12.663 6.914-19.879 6.909h-128c-8.487 0-16.626-3.371-22.627-9.373s-9.373-14.141-9.373-22.627c0-8.487 3.371-16.626 9.373-22.627s14.141-9.373 22.627-9.373zM896 736c4.797-0.092 9.513-1.243 13.809-3.372 4.301-2.129 8.074-5.182 11.049-8.941 2.98-3.759 5.094-8.131 6.185-12.801s1.132-9.525 0.128-14.215l-67.84-287.998c-1.623-7.030-5.581-13.302-11.233-17.787-5.652-4.48-12.662-6.912-19.871-6.886h-482.883l-82.944 352h633.6zM640 64c0-18.985 5.632-37.55 16.179-53.335s25.544-28.093 43.085-35.359c17.541-7.265 36.844-9.165 55.465-5.463 18.621 3.707 35.727 12.851 49.152 26.276s22.569 30.531 26.276 49.152c3.702 18.621 1.802 37.924-5.463 55.465s-19.574 32.538-35.359 43.085c-15.785 10.547-34.35 16.179-53.335 16.179-25.462 0-49.879-10.112-67.881-28.119-18.007-18.002-28.119-42.419-28.119-67.881zM768 64c0-6.328-1.879-12.518-5.391-17.777-3.517-5.263-8.515-9.364-14.362-11.786s-12.283-3.057-18.488-1.823c-6.211 1.234-11.909 4.28-16.384 8.76-4.48 4.475-7.526 10.173-8.76 16.384-1.234 6.205-0.599 12.641 1.823 18.488s6.523 10.844 11.786 14.362c5.258 3.512 11.448 5.391 17.777 5.391 8.489 0 16.625-3.369 22.625-9.375 6.006-6.001 9.375-14.136 9.375-22.625zM288 64c0-18.985 5.63-37.55 16.179-53.335s25.542-28.093 43.084-35.359c17.542-7.265 36.844-9.165 55.466-5.463 18.622 3.707 35.728 12.851 49.154 26.276s22.569 30.531 26.273 49.152c3.704 18.621 1.803 37.924-5.463 55.465s-19.57 32.538-35.358 43.085c-15.787 10.547-34.348 16.179-53.335 16.179-25.461 0-49.879-10.112-67.882-28.119-18.003-18.002-28.118-42.419-28.118-67.881zM416 64c0-6.328-1.877-12.518-5.393-17.777-3.516-5.263-8.514-9.364-14.361-11.786s-12.281-3.057-18.489-1.823c-6.207 1.234-11.909 4.28-16.385 8.76-4.475 4.475-7.523 10.173-8.758 16.384-1.235 6.205-0.601 12.641 1.821 18.488s6.523 10.844 11.786 14.362c5.262 3.512 11.449 5.391 17.778 5.391 8.487 0 16.626-3.369 22.627-9.375 6.001-6.001 9.373-14.136 9.373-22.625z" />
<glyph unicode="&#xe91e;" glyph-name="search" d="M950.625 54.625l-232.289 232.294c50.929 61.066 81.664 139.53 81.664 225.080 0 194.096-157.906 352-352 352-194.096 0-352-157.904-352-352 0-194.094 157.904-352 352-352 85.55 0 164.014 30.735 225.080 81.664l232.294-232.294c6.252-6.252 14.444-9.38 22.625-9.38s16.374 3.128 22.625 9.38c12.503 12.503 12.503 32.758 0 45.256zM160 512c0 158.8 129.184 288 288 288s288-129.2 288-288c0-158.802-129.183-288-288-288s-288 129.198-288 288z" />
<glyph unicode="&#xe91f;" glyph-name="arrow-right" d="M109.827 393.142h730.849l-219.969-219.969c-3.97-3.831-7.135-8.415-9.314-13.489-2.178-5.069-3.328-10.524-3.375-16.040-0.047-5.52 1.005-10.989 3.095-16.1 2.090-5.106 5.176-9.747 9.076-13.647s8.541-6.986 13.647-9.076c5.111-2.090 10.58-3.142 16.1-3.095 5.516 0.047 10.971 1.196 16.040 3.375 5.073 2.178 9.658 5.343 13.494 9.314l290.909 290.904c7.787 7.796 12.167 18.362 12.167 29.384s-4.38 21.588-12.167 29.379l-290.909 290.911c-7.838 7.57-18.339 11.759-29.235 11.664s-21.318-4.466-29.026-12.171c-7.703-7.705-12.074-18.129-12.167-29.025-0.098-10.896 4.091-21.394 11.664-29.232l219.969-219.967h-730.849c-11.022 0-21.592-4.38-29.386-12.176-7.794-7.792-12.172-18.362-12.172-29.384s4.379-21.592 12.172-29.384c7.794-7.796 18.365-12.176 29.386-12.176z" />
<glyph unicode="&#xe920;" glyph-name="arrow-left" d="M914.171 502.857h-730.845l219.969 219.969c3.969 3.833 7.135 8.419 9.313 13.489s3.325 10.523 3.373 16.042c0.048 5.518-1.004 10.99-3.093 16.098s-5.175 9.748-9.077 13.649c-3.902 3.902-8.542 6.988-13.649 9.078s-10.58 3.141-16.098 3.093c-5.518-0.048-10.972-1.194-16.042-3.372s-9.656-5.344-13.49-9.314l-290.909-290.907c-7.791-7.796-12.168-18.362-12.168-29.384 0-11.017 4.377-21.588 12.168-29.379l290.909-290.909c7.838-7.573 18.336-11.762 29.232-11.664 10.896 0.093 21.32 4.464 29.025 12.167 7.706 7.708 12.076 18.129 12.171 29.026s-4.094 21.397-11.664 29.235l-219.969 219.969h730.845c11.022 0 21.592 4.375 29.389 12.172 7.792 7.792 12.172 18.362 12.172 29.384s-4.38 21.592-12.172 29.389c-7.796 7.792-18.367 12.17-29.389 12.17z" />
<glyph unicode="&#xe921;" glyph-name="clock" d="M694.47 357.574l-142.776 107.080v218.124c0 21.932-17.728 39.66-39.66 39.66s-39.66-17.728-39.66-39.66v-237.956c0-12.492 5.87-24.272 15.864-31.728l158.635-118.975c7.142-5.357 15.469-7.936 23.757-7.936 12.096 0 23.994 5.434 31.77 15.904 13.171 17.491 9.6 42.359-7.93 55.487zM512 960c-282.334 0-512-229.666-512-512 0-282.336 229.666-512 512-512 282.336 0 512 229.664 512 512 0 282.334-229.664 512-512 512zM512 15.315c-238.55 0-432.682 194.138-432.682 432.685 0 238.55 194.132 432.682 432.682 432.682 238.592 0 432.685-194.132 432.685-432.682 0-238.547-194.138-432.685-432.685-432.685z" />
<glyph unicode="&#xe922;" glyph-name="welding-machine" horiz-adv-x="1170" d="M1071.495 610.192c-51.862-1.225-92.71-44.875-92.71-96.752v-148.904c43.946 14.248 90.8 21.979 139.429 21.979h29.864c11.43 0 20.698 9.267 20.698 20.698v108.010c0 53.142-43.858 96.23-97.28 94.969zM1117.455 479.519c-10.47-15.003-26.662-22.506-42.858-22.506s-32.388 7.503-42.86 22.506c-4.557 6.53-7.506 14.117-8.594 22.005-2.286 16.594 3.156 32.625 14.709 44.175 20.257 20.264 53.228 20.268 73.49 0 11.553-11.549 16.995-27.58 14.709-44.175-1.088-7.888-4.039-15.475-8.596-22.005zM957.798 515.328c0 64.046 51.95 115.95 115.997 115.893h0.199c6.521-0.005 9.792 7.879 5.18 12.491l-281.445 281.442c-37.040 37.039-97.307 37.034-134.345 0-37.038-37.042-37.038-97.307 0-134.346l281.024-281.027c4.941-4.941 13.389-1.443 13.389 5.546zM730.326 904.791c32.827 3.287 60.314-24.198 57.029-57.027-2.432-24.298-22.084-43.95-46.382-46.377-32.821-3.279-60.299 24.197-57.022 57.018 2.428 24.298 22.076 43.953 46.374 46.386zM686.25-56.080h458.737c13.14 0 23.793 10.651 23.793 23.792v370.48c0 15.091-12.233 27.324-27.324 27.324h-23.237c-234.754 0-426.383-188.162-431.969-421.595zM1057.157 269.157c-145.668 0-264.208-118.363-264.497-263.965-0.011-5.506-3.961-10.447-9.441-10.984-6.276-0.614-11.56 4.301-11.56 10.448 0 157.299 127.868 285.294 285.116 285.502 5.466 0.007 10.333-4.058 10.836-9.499 0.578-6.25-4.325-11.502-10.454-11.502zM1074.611 539.908c-7.932 0-15.861-3.019-21.899-9.055-5.85-5.85-9.070-13.625-9.070-21.899 0-8.271 3.22-16.048 9.070-21.897 12.078-12.072 31.72-12.072 43.796 0 5.851 5.85 9.072 13.627 9.072 21.897 0 8.274-3.22 16.049-9.072 21.899-6.038 6.036-13.967 9.055-21.897 9.055zM448.503 493.755c29.787-3.65 58.472 6.32 79.237 27.083l173.925 173.925c7.746 7.746 7.746 20.304 0 28.050l-53.149 53.149c-21.824 21.825-33.099 50.254-33.851 78.913-0.207 7.927-9.907 11.672-15.515 6.065l-204.407-204.41c-18.088-18.088-29.038-42.432-29.169-68.012-0.154-29.277 12.846-56.576 36.202-75.158 13.436-10.69 29.685-17.52 46.727-19.606zM735.647 822.121c17.073 0 30.965 13.892 30.965 30.968s-13.892 30.968-30.965 30.968c-17.077 0-30.969-13.892-30.969-30.968s13.892-30.968 30.969-30.968zM387.494 515.792c-1.51 1.512-3.050 3.196-4.566 5.010l-5.535 6.618-82.829-82.831c-5.99-5.989-5.99-15.735-0.002-21.729 2.904-2.904 6.762-4.502 10.864-4.502 4.109 0 7.967 1.598 10.865 4.502l82.829 82.832-6.618 5.535c-1.799 1.505-3.482 3.041-5.008 4.564zM185.521 411.558h-161.161c-7.21 0-13.075-5.866-13.075-13.074 0-7.21 5.865-13.076 13.075-13.076h161.161c7.21 0 13.074 5.866 13.074 13.076 0 7.208-5.864 13.074-13.074 13.074zM220.807 491.621l-106.637 106.637c-2.468 2.472-5.752 3.831-9.246 3.831s-6.777-1.36-9.243-3.831c-5.098-5.096-5.098-13.391 0-18.487l106.638-106.637c2.469-2.472 5.753-3.833 9.247-3.833 3.493 0 6.777 1.36 9.242 3.833 5.1 5.094 5.1 13.391 0 18.487zM291.61 693.608c-7.208 0-13.074-5.864-13.074-13.074v-150.811c0-7.21 5.866-13.076 13.074-13.076 7.21 0 13.076 5.866 13.076 13.076v150.811c0 7.21-5.866 13.074-13.076 13.074zM957.798 357.149v24.049c0 3.238-2.597 5.872-5.835 5.899-61.049 0.517-576.267 0.885-576.267 0.885h-126.515c-29.352 0-53.146-23.795-53.146-53.146v-326.159c0-35.765 28.994-64.759 64.761-64.759h404.469c4.317 188.844 124.751 349.491 292.533 413.23zM304.496 116.432c0-7.526-6.455-13.541-14.133-12.811-6.693 0.636-11.608 6.64-11.608 13.363v149.707c0 6.724 4.915 12.727 11.608 13.363 7.678 0.73 14.133-5.286 14.133-12.811v-150.811zM487.398 198.85c-2.512-2.514-5.808-3.771-9.101-3.771s-6.588 1.256-9.101 3.771l-106.64 106.64c-5.027 5.025-5.027 13.175 0 18.2 5.023 5.027 13.179 5.027 18.202 0l106.64-106.64c5.027-5.025 5.027-13.175 0-18.2zM155.903 279.205l-89.511-89.51c-5.669-5.669-6.207-15.047-0.575-20.751 2.719-2.756 6.351-4.273 10.218-4.273 3.839 0 7.444 1.496 10.153 4.208l74.887 74.885c3.869 3.869 6.043 9.117 6.043 14.59v16.207c0 5.853-7.077 8.783-11.215 4.645z" />
<glyph unicode="&#xe923;" glyph-name="welding" d="M179.999 656h-59.999v94c0 49.626 40.375 90.001 90.001 90.001h95.397c12.001-34.797 45.602-59.999 84.602-59.999 10.195 0 20.397 1.804 30 5.398l240 84.601-240 84.602c-9.602 3.602-19.805 5.398-30 5.398-39 0-72.602-25.195-84.602-60h-95.397c-82.704 0-150.001-67.297-150.001-150.001v-94h-60v-120h179.999v120zM480.001 476h239.999v-59.999h-239.999v59.999zM510.001 236c-16.804 0-30-13.195-30-30 0-16.797 13.195-30 30-30s30 13.202 30 30c0 16.804-13.195 30-30 30zM300 656v-420h-30c-49.624 0-90.001-40.374-90.001-89.999v-120c0-16.555-13.445-30.001-29.999-30.001s-30 13.447-30 30.001v215.398c34.805 12.001 59.999 45.602 59.999 84.602v150h-179.999v-150c0-39 25.195-72.602 60-84.602v-215.398c0-49.626 40.375-90.001 90-90.001s90 40.374 90 90.001v120c0 16.555 13.445 30 30 30h30v-180.001h60.001v-59.999h179.999v59.999h240v-59.999h179.999v59.999h64v660h-724zM420 535.999h360.001v-179.999h-360.001v179.999zM510.001 115.999c-49.806 0-90.001 40.204-90.001 90.001 0 49.804 40.195 90.001 90.001 90.001 49.804 0 89.999-40.196 89.999-90.001 0-49.797-40.195-90.001-89.999-90.001zM900.001 115.999h-240v60.001h240v-60.001zM900.001 236h-240v60.001h240v-60.001zM900.001 356h-60.001v60.001h60.001v-60.001zM900.001 476h-60.001v59.999h60.001v-59.999z" />
<glyph unicode="&#xe924;" glyph-name="share" d="M812.002 295.87c-59.284 0-111.526-29.16-144.336-73.511l-283.686 145.265c4.71 16.054 8.020 32.692 8.020 50.248 0 23.812-4.882 46.45-13.316 67.272l296.891 178.656c33.039-38.776 81.601-63.928 136.427-63.928 99.256 0 180.001 80.742 180.001 180s-80.745 180-180.001 180c-99.262 0-180.001-80.742-180.001-180 0-22.874 4.71-44.572 12.523-64.716l-297.774-179.18c-33.012 37.624-80.876 61.896-134.75 61.896-99.258 0-180-80.742-180-180s80.742-180.002 180-180.002c60.26 0 113.382 30.021 146.070 75.613l282.749-144.788c-5.204-16.812-8.818-34.322-8.818-52.826 0-99.256 80.739-179.995 180.001-179.995 99.256 0 180.001 80.739 180.001 179.995 0 99.262-80.745 180.001-180.001 180.001z" />
<glyph unicode="&#xe925;" glyph-name="telephone" d="M778.502 282.605c-33.453 33.024-75.219 33.024-108.461 0-25.357-25.146-50.714-50.291-75.645-75.859-6.819-7.034-12.572-8.525-20.883-3.834-16.407 8.947-33.88 16.192-49.649 25.997-73.514 46.234-135.096 105.687-189.645 172.595-27.062 33.242-51.14 68.827-67.974 108.886-3.409 8.097-2.77 13.425 3.836 20.030 25.357 24.505 50.075 49.649 75.005 74.793 34.733 34.946 34.733 75.858-0.212 111.017-19.817 20.030-39.634 39.634-59.451 59.664-20.456 20.456-40.7 41.125-61.368 61.368-33.455 32.602-75.219 32.602-108.46-0.213-25.571-25.144-50.075-50.927-76.071-75.645-24.079-22.8-36.224-50.714-38.781-83.316-4.049-53.058 8.95-103.133 27.275-151.93 37.503-101.002 94.61-190.711 163.862-272.962 93.544-111.232 205.201-199.232 335.821-262.733 58.812-28.55 119.756-50.502 186.021-54.125 45.6-2.554 85.235 8.954 116.986 44.538 21.734 24.288 46.24 46.451 69.254 69.677 34.093 34.522 34.304 76.282 0.422 110.381-40.486 40.698-81.184 81.184-121.882 121.67zM737.856 452.431l78.63 13.425c-12.358 72.236-46.451 137.652-98.234 189.645-54.758 54.763-124.013 89.283-200.298 99.937l-11.080-79.054c59.025-8.31 112.722-34.946 155.128-77.35 40.058-40.060 66.266-90.774 75.853-146.603zM860.742 794.22c-90.771 90.774-205.626 148.094-332.412 165.78l-11.080-79.055c109.526-15.342 208.824-64.991 287.236-143.193 74.368-74.366 123.168-168.337 140.851-271.683l78.63 13.424c-20.672 119.754-77.139 228.427-163.226 314.726z" />
<glyph unicode="&#xe926;" glyph-name="email-2" d="M541.62 318.643c-9.672-6.048-20.552-8.467-30.224-8.467s-20.553 2.419-30.225 8.467l-481.171 293.779v-390.495c0-83.424 67.702-151.123 151.122-151.123h721.755c83.418 0 151.123 67.699 151.123 151.123v390.495l-482.38-293.779zM872.794 825.203h-721.758c-71.329 0-131.778-50.777-146.286-118.479l507.768-309.497 506.56 309.497c-14.509 67.702-74.957 118.479-146.285 118.479z" />
<glyph unicode="&#xe927;" glyph-name="portfolio" d="M422 418h180v-60h-180v60zM830.758 358h-168.755v-30c0-16.576-13.427-30.003-30.003-30.003h-240c-16.578 0-30 13.427-30 30.003v30h-168.758c-38.789 0-73.094 24.726-85.375 61.523l-107.867 323.656v-655.18c0-49.626 40.375-89.997 90-89.997h844.003c49.619 0 89.997 40.371 89.997 89.997v655.156l-107.872-323.633c-12.275-36.797-46.579-61.523-85.37-61.523zM632.008 898h-240c-49.625 0-90-40.375-90-90v-30h-250.383l113.148-339.492c4.102-12.273 15.555-20.508 28.477-20.508h168.758v30c0 16.578 13.422 30 30 30h240c16.581 0 30.002-13.422 30.002-30v-30h168.755c12.922 0 24.378 8.234 28.48 20.508l113.152 339.492h-250.387v30c0 49.625-40.378 90-90.002 90zM362.008 778v30c0 16.555 13.446 30 30 30h240c16.556 0 30.002-13.445 30.002-30v-30h-300.002z" />
<glyph unicode="&#xe928;" glyph-name="email2" d="M665.32 401.010l-83.696-83.976c-33.938-34.056-93.653-34.788-128.327 0l-83.696 83.976-300.601-301.576c11.19-5.175 23.526-8.263 36.642-8.263h823.638c13.119 0 25.45 3.084 36.636 8.263l-300.595 301.576zM929.355 793.828h-823.639c-13.116 0-25.453-3.088-36.638-8.262l321.213-322.277c0.021-0.024 0.047-0.028 0.068-0.047 0.022-0.024 0.026-0.051 0.026-0.051l104.444-104.791c11.095-11.095 34.324-11.095 45.418 0l104.42 104.771c0 0 0.028 0.047 0.047 0.071 0 0 0.047 0.024 0.071 0.047l321.205 322.279c-11.185 5.176-23.52 8.26-36.636 8.26zM27.187 744.622c-5.789-11.707-9.341-24.701-9.341-38.621v-526.974c0-13.919 3.548-26.912 9.339-38.621l301.122 302.1-301.12 302.117zM1007.734 744.622l-301.119-302.121 301.119-302.104c5.79 11.709 9.342 24.702 9.342 38.624v526.975c0 13.924-3.552 26.918-9.342 38.625z" />
<glyph unicode="&#xe929;" glyph-name="phone-call1" d="M956.998 231.494c-79.136 7.245-156.301 27.36-229.229 59.834-35.84 16.166-77.747 1.536-95.377-33.28l-49.737-98.746c-150.82 83.603-275.895 208.753-359.351 359.427l98.67 49.664c34.816 17.482 49.517 59.392 33.426 95.379-32.548 72.85-52.736 149.943-59.904 229.229-3.51 38.181-34.596 66.999-72.412 66.999h-186.514c-20.187 0-36.571-16.384-36.571-36.571 0-148.919 32.475-292.498 96.476-426.935 97.207-202.023 261.997-366.81 464.164-464.090 134.362-64 277.946-96.403 426.79-96.403 20.186 0 36.57 16.384 36.57 36.57v186.515c0 37.818-28.819 68.973-67.002 72.41z" />
<glyph unicode="&#xe92a;" glyph-name="quite" horiz-adv-x="1352" d="M1018.282-49.75c-9.955 15.931-18.485 29.608-26.718 42.795 96.266 110.653 179.055 224.743 163.32 379.208-140.599 0-278.311 0-417.604 0 0 194.552 0 387.453 0 581.517 204.091 0 407.431 0 612.313 0 0.475-6.669 1.247-12.531 1.247-18.411 0.059-159.61 2.138-319.257-0.475-478.831-3.561-217.303-108.319-380.258-303.405-492.057-8.491-4.866-17.615-8.755-28.678-14.221zM417.585 371.71c-141.406 0-278.694 0-417.585 0 0 194.472 0 387.645 0 582.060 204.061 0 407.429 0 612.321 0 0.496-7.132 1.307-13.529 1.307-19.908 0.080-158.852 1.939-317.741-0.416-476.556-3.228-217.616-107.317-381.153-302.113-493.658-7.225-4.178-14.926-7.678-22.489-11.309-1.821-0.866-3.998-1.034-8.372-2.089-8.751 13.736-17.619 27.679-26.171 41.116 96.408 110.924 179.296 225.198 163.518 380.344z" />
</font>
</defs>
</svg>
